<svg version="1.1" xmlns="http://www.w3.org/2000/svg" xmlns:xlink="http://www.w3.org/1999/xlink" width="21.07592" height="20.81546" viewBox="0,0,21.07592,20.81546"><g transform="translate(-229.46204,-169.59227)"><g data-paper-data="{&quot;isPaintingLayer&quot;:true}" fill-rule="nonzero" stroke-linecap="butt" stroke-linejoin="miter" stroke-miterlimit="10" stroke-dasharray="" stroke-dashoffset="0" style="mix-blend-mode: normal"><path d="M250.53793,175.63916v8.72168c0,3.78841 -2.28788,6.04689 -6.12561,6.04689h-8.82467c-3.83773,0 -6.12561,-2.25848 -6.12561,-6.0573v-8.71127c0,-3.78841 2.28788,-6.04689 6.12561,-6.04689h8.83521c3.83773,0 6.12561,2.25848 6.11507,6.04689zM246.0676,184.68348c0,-0.42672 -0.35847,-0.78058 -0.79074,-0.78058h-10.54322c-0.43227,0 -0.79074,0.35387 -0.79074,0.78058c0,0.42672 0.35847,0.78058 0.79074,0.78058h10.54322c0.43227,0 0.79074,-0.35386 0.79074,-0.78058zM246.0676,180c0,-0.42672 -0.35847,-0.78058 -0.79074,-0.78058h-10.54322c-0.43227,0 -0.79074,0.35386 -0.79074,0.78058c0,0.42672 0.35847,0.78058 0.79074,0.78058h10.54322c0.43227,0 0.79074,-0.35386 0.79074,-0.78058zM246.0676,175.31652c0,-0.42672 -0.35847,-0.78058 -0.79074,-0.78058h-10.54322c-0.43227,0 -0.79074,0.35386 -0.79074,0.78058c0,0.42672 0.35847,0.78058 0.79074,0.78058h10.54322c0.43227,0 0.79074,-0.35387 0.79074,-0.78058z" fill="#58616b" stroke="none" stroke-width="1"/><path d="M233.09962,186.77771v-12.75441h13.43284v12.75441z" fill="#ffffff" stroke="#000000" stroke-width="0"/><path d="M249.99,175.81v8.38c0,3.64 -2.17,5.81 -5.81,5.81h-8.37c-3.64,0 -5.81,-2.17 -5.81,-5.82v-8.37c0,-3.64 2.17,-5.81 5.81,-5.81h8.38c3.64,0 5.81,2.17 5.8,5.81zM245.75,184.5c0,-0.41 -0.34,-0.75 -0.75,-0.75h-10c-0.41,0 -0.75,0.34 -0.75,0.75c0,0.41 0.34,0.75 0.75,0.75h10c0.41,0 0.75,-0.34 0.75,-0.75zM245.75,180c0,-0.41 -0.34,-0.75 -0.75,-0.75h-10c-0.41,0 -0.75,0.34 -0.75,0.75c0,0.41 0.34,0.75 0.75,0.75h10c0.41,0 0.75,-0.34 0.75,-0.75zM245.75,175.5c0,-0.41 -0.34,-0.75 -0.75,-0.75h-10c-0.41,0 -0.75,0.34 -0.75,0.75c0,0.41 0.34,0.75 0.75,0.75h10c0.41,0 0.75,-0.34 0.75,-0.75z" fill="#292d32" stroke="none" stroke-width="1"/></g></g></svg>